{"title":"The.Man.from.U.N.C.L.E.2015.WEBRiP.XViD.AC3.5.1.ReLeNTLesS","uid":12637288,"size":1680174534,"categoryP":"video","categoryS":"movies","magnet":"?xt=urn:btih:ff381b74c44c226db1144b76e3d32c1d97fea39e&amp;dn=The.Man.from.U.N.C.L.E.2015.WEBRiP.XViD.AC3.5.1.ReLeNTLesS&amp;tr=udp%3A%2F%2Ftracker.leechers-paradise.org%3A6969&amp;tr=udp%3A%2F%2Fzer0day.ch%3A1337&amp;tr=udp%3A%2F%2Fopen.demonii.com%3A1337&amp;tr=udp%3A%2F%2Ftracker.coppersurfer.tk%3A6969&amp;tr=udp%3A%2F%2Fexodus.desync.com%3A6969","seeders":0,"leechers":0,"uploader":"TvTeam","files":4,"time":1445942416,"description":"------------------------------------------------------------------------\r\n\r  https://www.torrenting.com\r\n\r\nSign up is OPEN - for time being. Come and have fun.\r\n\r\n------------------------------------------------------------------------P0STER\r\n[img]http://i.imgur.com/1b4lBM9.png[/img]\r\n\r\niMDB: http://www.imdb.com/title/tt1638355/\r\n\r\nGeneral\r\nComplete name               : The.Man.from.U.N.C.L.E.2015.WEBRiP.XViD.AC3.5.1.ReLeNTLesS.avi\r\nFormat                      : AVI\r\nFormat/Info                 : Audio Video Interleave\r\nFile size                   : 1.55 GiB\r\nDuration                    : 1h 56mn\r\nOverall bit rate            : 1 906 Kbps\r\n\r\nVideo\r\nID                          : 0\r\nFormat                      : MPEG-4 Visual\r\nFormat profile              : Advanced   \r\nFormat settings, BVOP       : 1\r\nFormat settings, QPel       : No\r\nFormat settings, GMC        : No warppoints\r\nFormat settings, Matrix     : Default (H.263)\r\nMuxing mode                 : Packed bitstream\r\nCodec ID                    : XVID\r\nCodec ID/Hint               : XviD\r\nDuration                    : 1h 56mn\r\nBit rate                    : 1 707 Kbps\r\nWidth                       : 720 pixels\r\nHeight                      : 304 pixels\r\nDisplay aspect ratio        : 2.35:1\r\nFrame rate                  : 23.976 fps\r\nColor space                 : YUV\r\nChroma subsampling          : 4:2:0\r\nBit depth                   : 8 bits\r\nScan type                   : Progressive\r\nCompression mode            : Lossy\r\nBits/(Pixel*Frame)          : 0.325\r\nStream size                 : 1.39 GiB (90%)\r\nWriting library             : XviD 1.2.1 (UTC 2008-12-04)\r\n\r\nAudio\r\nID                          : 1\r\nFormat                      : AC-3\r\nFormat/Info                 : Audio Coding 3\r\nMode extension              : CM (complete main)\r\nFormat settings, Endianness : Big\r\nCodec ID                    : 2000\r\nDuration                    : 1h 56mn\r\nBit rate mode               : Constant\r\nBit rate                    : 192 Kbps\r\nChannel(s)                  : 6 channels\r\nChannel positions           : Front: L C R, Side: L R, LFE\r\nSampling rate               : 48.0 KHz\r\nCompression mode            : Lossy\r\nStream size                 : 160 MiB (10%)\r\nAlignment                   : Aligned on interleaves\r\nInterleave, duration        : 64 ms (1.53 video frames)\r\nInterleave, preload duratio : 192 ms\r\nTitle                       : The.Man.from.U.N.C.L.E.2015.ReLeNTLesS.audio.5.1.English_new\r\nSample Included             : Yes\r\nSource                      : PLAYNOW Thanks \r\n\r\nPL0T\r\nIn the early 1960s, CIA agent Napoleon Solo and KGB operative Illya Kuryakin participate in a joint mission against a mysterious criminal organization, which is working to proliferate nuclear weapons.\r\n\r\nCAST\r\nDirector: Guy Ritchie\r\nWriters: Guy Ritchie (screenplay), Lionel Wigram (screenplay)\r\nStars: Henry Cavill, Armie Hammer, Alicia Vikander \r\n\r\nN0TE\r\nResized, Degrained, sharpened and brightened just a touch.\r\n\r\nSCREENS\r\n[img]http://i.imgur.com/WdeZr3G.png[/img]\r\n[img]http://i.imgur.com/vV9wqDO.png[/img]\r\n[img]http://i.imgur.com/5Q3z3Kc.png[/img]\r\n[img]http://i.imgur.com/9y5iNfp.png[/img]\r\n[img]http://i.imgur.com/Ek0pfu2.png[/img]\r\n[img]http://i.imgur.com/F3FcNTy.png[/img]\r\n[img]http://i.imgur.com/opdTdbB.png[/img]\r\n[img]http://i.imgur.com/r9Nc5J4.png[/img]\r\n\r\nTRAiLER\r\n\r\nGREETZ\r\n\r\n\r\nHIVE-CM8, Blackjesus, M0RPH, M00SE, MiLLENiUM,\r\n\r\nMANiX, TiTAN, Anonymous, TuX, \r\n\r\nACAB, KingStoner, FooKas, 4PlayHD, \r\n\r\nSoZE, GodFather, Cld.... \r\n\r\nKeep up the good work guyz","torrent":{"xt":"urn:btih:ff381b74c44c226db1144b76e3d32c1d97fea39e","amp;dn":"The.Man.from.U.N.C.L.E.2015.WEBRiP.XViD.AC3.5.1.ReLeNTLesS","amp;tr":["udp%3A%2F%2Ftracker.leechers-paradise.org%3A6969","udp%3A%2F%2Fzer0day.ch%3A1337","udp%3A%2F%2Fopen.demonii.com%3A1337","udp%3A%2F%2Ftracker.coppersurfer.tk%3A6969","udp%3A%2F%2Fexodus.desync.com%3A6969"],"infoHash":"ff381b74c44c226db1144b76e3d32c1d97fea39e","infoHashBuffer":{"type":"Buffer","data":[255,56,27,116,196,76,34,109,177,20,75,118,227,211,44,29,151,254,163,158]},"announce":[],"urlList":[]}}